<?xml version="1.0" standalone="no"?>
<!DOCTYPE svg PUBLIC "-//W3C//DTD SVG 20010904//EN"
 "http://www.w3.org/TR/2001/REC-SVG-20010904/DTD/svg10.dtd">
<svg version="1.0" xmlns="http://www.w3.org/2000/svg"
 width="700.000000pt" height="700.000000pt" viewBox="0 0 700.000000 700.000000"
 preserveAspectRatio="xMidYMid meet">
<metadata>
Created by potrace 1.11, written by Peter Selinger 2001-2013
</metadata>
<g transform="translate(0.000000,700.000000) scale(0.100000,-0.100000)"
fill="#000000" stroke="none">
<path d="M3270 6994 c-19 -2 -84 -9 -145 -15 -1215 -121 -2304 -909 -2814
-2035 -147 -325 -241 -660 -288 -1029 -22 -174 -25 -625 -5 -785 43 -350 108
-610 225 -910 337 -864 1027 -1575 1882 -1938 338 -144 656 -224 1056 -268
185 -20 575 -15 759 10 790 108 1483 449 2040 1006 807 806 1162 1944 965
3090 -79 462 -274 939 -546 1340 -566 834 -1443 1377 -2442 1511 -144 19 -590
34 -687 23z m1093 -1504 l87 -85 -353 -365 -354 -365 461 -5 461 -5 192 -380
192 -380 0 -1280 c1 -1222 0 -1282 -18 -1321 -23 -49 -88 -107 -140 -122 -55
-17 -2727 -17 -2782 0 -52 15 -117 73 -140 122 -18 39 -19 99 -19 1318 l0
1278 192 385 193 385 325 0 325 1 -190 183 -190 184 140 143 c77 79 320 330
539 556 l399 413 296 -288 c163 -158 335 -326 384 -372z"/>
<path d="M2920 4325 l0 -55 580 0 580 0 0 55 0 55 -314 0 -314 0 -36 -40 c-20
-22 -40 -40 -44 -40 -4 0 -26 18 -47 40 l-39 40 -183 0 -183 0 0 -55z"/>
<path d="M2530 2330 l0 -390 970 0 970 0 0 390 0 390 -970 0 -970 0 0 -390z"/>
</g>
</svg>
